<mxfile host="Electron" modified="2023-05-02T12:26:08.701Z" agent="Mozilla/5.0 (X11; Linux x86_64) AppleWebKit/537.36 (KHTML, like Gecko) draw.io/21.2.1 Chrome/112.0.5615.87 Electron/24.1.2 Safari/537.36" etag="jFfX6573FAwx_3T6lABP" version="21.2.1" type="device">
  <diagram name="第 1 页" id="LXCgaofFlvdVkG8yf1ug">
    <mxGraphModel dx="1221" dy="755" grid="1" gridSize="10" guides="1" tooltips="1" connect="1" arrows="1" fold="1" page="1" pageScale="1" pageWidth="827" pageHeight="1169" math="0" shadow="0">
      <root>
        <mxCell id="0" />
        <mxCell id="1" parent="0" />
        <mxCell id="FfAAMheP4hHlrJc3rU9--2" style="edgeStyle=orthogonalEdgeStyle;rounded=0;orthogonalLoop=1;jettySize=auto;html=1;exitX=1;exitY=0.25;exitDx=0;exitDy=0;" edge="1" parent="1" source="FfAAMheP4hHlrJc3rU9--1">
          <mxGeometry relative="1" as="geometry">
            <mxPoint x="640" y="290" as="targetPoint" />
            <Array as="points">
              <mxPoint x="520" y="290" />
              <mxPoint x="520" y="290" />
            </Array>
          </mxGeometry>
        </mxCell>
        <mxCell id="FfAAMheP4hHlrJc3rU9--3" style="edgeStyle=orthogonalEdgeStyle;rounded=0;orthogonalLoop=1;jettySize=auto;html=1;entryX=1;entryY=0.75;entryDx=0;entryDy=0;" edge="1" parent="1" target="FfAAMheP4hHlrJc3rU9--1">
          <mxGeometry relative="1" as="geometry">
            <mxPoint x="640" y="330" as="sourcePoint" />
          </mxGeometry>
        </mxCell>
        <mxCell id="FfAAMheP4hHlrJc3rU9--4" style="edgeStyle=orthogonalEdgeStyle;rounded=0;orthogonalLoop=1;jettySize=auto;html=1;entryX=0;entryY=0.25;entryDx=0;entryDy=0;" edge="1" parent="1" target="FfAAMheP4hHlrJc3rU9--1">
          <mxGeometry relative="1" as="geometry">
            <mxPoint x="190" y="290" as="sourcePoint" />
          </mxGeometry>
        </mxCell>
        <mxCell id="FfAAMheP4hHlrJc3rU9--5" style="edgeStyle=orthogonalEdgeStyle;rounded=0;orthogonalLoop=1;jettySize=auto;html=1;exitX=0;exitY=0.75;exitDx=0;exitDy=0;" edge="1" parent="1" source="FfAAMheP4hHlrJc3rU9--1">
          <mxGeometry relative="1" as="geometry">
            <mxPoint x="190" y="330" as="targetPoint" />
          </mxGeometry>
        </mxCell>
        <mxCell id="FfAAMheP4hHlrJc3rU9--1" value="&lt;font style=&quot;font-size: 16px;&quot;&gt;cache&lt;/font&gt;" style="rounded=0;whiteSpace=wrap;html=1;" vertex="1" parent="1">
          <mxGeometry x="339" y="270" width="150" height="80" as="geometry" />
        </mxCell>
        <mxCell id="FfAAMheP4hHlrJc3rU9--6" value="&lt;font style=&quot;font-size: 16px;&quot;&gt;front end&lt;/font&gt;" style="text;html=1;align=center;verticalAlign=middle;resizable=0;points=[];autosize=1;strokeColor=none;fillColor=none;" vertex="1" parent="1">
          <mxGeometry x="510" y="220" width="90" height="30" as="geometry" />
        </mxCell>
        <mxCell id="FfAAMheP4hHlrJc3rU9--7" value="&lt;font style=&quot;font-size: 16px;&quot;&gt;back end&lt;/font&gt;" style="text;html=1;align=center;verticalAlign=middle;resizable=0;points=[];autosize=1;strokeColor=none;fillColor=none;" vertex="1" parent="1">
          <mxGeometry x="210" y="220" width="90" height="30" as="geometry" />
        </mxCell>
        <mxCell id="FfAAMheP4hHlrJc3rU9--8" value="" style="endArrow=none;html=1;rounded=0;" edge="1" parent="1">
          <mxGeometry width="50" height="50" relative="1" as="geometry">
            <mxPoint x="520" y="249" as="sourcePoint" />
            <mxPoint x="590" y="249" as="targetPoint" />
          </mxGeometry>
        </mxCell>
        <mxCell id="FfAAMheP4hHlrJc3rU9--9" value="" style="endArrow=none;html=1;rounded=0;" edge="1" parent="1">
          <mxGeometry width="50" height="50" relative="1" as="geometry">
            <mxPoint x="220" y="250" as="sourcePoint" />
            <mxPoint x="290" y="250" as="targetPoint" />
          </mxGeometry>
        </mxCell>
        <mxCell id="FfAAMheP4hHlrJc3rU9--11" value="&lt;font style=&quot;font-size: 16px;&quot;&gt;kmem_cache_alloc&lt;/font&gt;" style="text;html=1;align=center;verticalAlign=middle;resizable=0;points=[];autosize=1;strokeColor=none;fillColor=none;" vertex="1" parent="1">
          <mxGeometry x="489" y="260" width="160" height="30" as="geometry" />
        </mxCell>
        <mxCell id="FfAAMheP4hHlrJc3rU9--13" value="&lt;font style=&quot;font-size: 16px;&quot;&gt;kmem_cache_free&lt;/font&gt;" style="text;html=1;align=center;verticalAlign=middle;resizable=0;points=[];autosize=1;strokeColor=none;fillColor=none;" vertex="1" parent="1">
          <mxGeometry x="489" y="330" width="160" height="30" as="geometry" />
        </mxCell>
        <mxCell id="FfAAMheP4hHlrJc3rU9--14" value="&lt;font style=&quot;font-size: 16px;&quot;&gt;kmem_cache_grow&lt;/font&gt;" style="text;html=1;align=center;verticalAlign=middle;resizable=0;points=[];autosize=1;strokeColor=none;fillColor=none;" vertex="1" parent="1">
          <mxGeometry x="185" y="260" width="160" height="30" as="geometry" />
        </mxCell>
        <mxCell id="FfAAMheP4hHlrJc3rU9--15" value="&lt;font style=&quot;font-size: 16px;&quot;&gt;kmem_cache_reap&lt;/font&gt;" style="text;html=1;align=center;verticalAlign=middle;resizable=0;points=[];autosize=1;strokeColor=none;fillColor=none;" vertex="1" parent="1">
          <mxGeometry x="185" y="330" width="160" height="30" as="geometry" />
        </mxCell>
        <mxCell id="FfAAMheP4hHlrJc3rU9--16" value="&lt;font style=&quot;font-size: 16px;&quot;&gt;Page Allocator&lt;/font&gt;" style="rounded=1;whiteSpace=wrap;html=1;" vertex="1" parent="1">
          <mxGeometry x="35" y="265" width="150" height="90" as="geometry" />
        </mxCell>
      </root>
    </mxGraphModel>
  </diagram>
</mxfile>
